<?xml version="1.0" encoding="utf-8"?>
<!-- Generator: Adobe Illustrator 16.0.0, SVG Export Plug-In . SVG Version: 6.00 Build 0)  -->
<!DOCTYPE svg PUBLIC "-//W3C//DTD SVG 1.1//EN" "http://www.w3.org/Graphics/SVG/1.1/DTD/svg11.dtd">
<svg version="1.1" id="Calque_1" xmlns="http://www.w3.org/2000/svg" xmlns:xlink="http://www.w3.org/1999/xlink" x="0px" y="0px"
	 width="541.982px" height="539.502px" viewBox="0 0 541.982 539.502" enable-background="new 0 0 541.982 539.502"
	 xml:space="preserve">
<polygon fill="#1DC918" points="63.433,104.735 63.433,209.108 116.634,209.108 116.491,257.323 20.991,257.422 21.173,19.75 
	116.488,83.684 116.488,136.91 "/>
<path fill="#287C4E" d="M437.016,270.253L185.655,104.438l-0.099,152.884h-40.28L145.18,20.739c0,0,251.66,165.488,375.811,250.18
	c-125.509,82.684-375.849,248.832-375.849,248.832l0.082-236.272l40.336-0.101l0.095,152.489L437.016,270.253z"/>
<path fill="#1DC918" d="M207.073,144.094c64.173,41.595,127.331,84.356,191.107,126.41
	c-63.346,42.104-128.279,85.927-191.107,126.411c0-17.965,0-35.925,0-53.892c34.104-25.798,72.019-47.22,106.561-72.52
	c-34.964-24.588-72.064-46.729-106.561-71.854C207.073,180.466,207.073,162.279,207.073,144.094z"/>
<polygon fill="#1DC918" points="21.286,283.378 116.647,283.461 116.647,331.364 63.342,331.545 63.342,433.406 116.647,398.318 
	116.647,452.879 21.368,519.214 "/>
</svg>
