<?xml version="1.0" encoding="utf-8"?>
<!-- Generator: Adobe Illustrator 12.0.0, SVG Export Plug-In . SVG Version: 6.00 Build 51448)  -->
<!DOCTYPE svg PUBLIC "-//W3C//DTD SVG 1.1//EN" "http://www.w3.org/Graphics/SVG/1.1/DTD/svg11.dtd" [
	<!ENTITY ns_svg "http://www.w3.org/2000/svg">
	<!ENTITY ns_xlink "http://www.w3.org/1999/xlink">
]>
<svg  version="1.1" id="Calque_1" xmlns="&ns_svg;" xmlns:xlink="&ns_xlink;" width="541.983" height="539.502"
	 viewBox="0 0 541.983 539.502" overflow="visible" enable-background="new 0 0 541.983 539.502" xml:space="preserve">
<polygon fill-rule="evenodd" clip-rule="evenodd" points="46.006,91.698 46.006,204.317 103.674,204.317 103.519,256.341 0,256.448 
	0.197,0 103.515,68.984 103.515,126.415 "/>
<path fill-rule="evenodd" clip-rule="evenodd" d="M450.958,270.292L178.489,91.378l-0.107,164.962H134.72L134.617,1.067
	c0,0,272.792,178.562,407.366,269.945c-136.047,89.215-407.408,268.489-407.408,268.489l0.089-254.938l43.723-0.109l0.102,164.537
	L450.958,270.292z"/>
<path fill-rule="evenodd" clip-rule="evenodd" d="M201.706,134.167c69.561,44.881,138.021,91.021,207.154,136.396
	c-68.664,45.431-139.051,92.715-207.154,136.4c0-19.385,0-38.764,0-58.152c36.967-27.835,78.066-50.948,115.508-78.248
	c-37.9-26.531-78.116-50.421-115.508-77.53C201.706,173.412,201.706,153.789,201.706,134.167z"/>
<polygon fill-rule="evenodd" clip-rule="evenodd" points="0.319,284.454 103.687,284.544 103.687,336.231 45.906,336.427 
	45.906,446.335 103.687,408.476 103.687,467.347 0.409,538.922 "/>
</svg>
