<?xml version="1.0" encoding="utf-8"?>
<!-- Generator: Adobe Illustrator 12.0.0, SVG Export Plug-In . SVG Version: 6.00 Build 51448)  -->
<!DOCTYPE svg PUBLIC "-//W3C//DTD SVG 1.1//EN" "http://www.w3.org/Graphics/SVG/1.1/DTD/svg11.dtd" [
	<!ENTITY ns_svg "http://www.w3.org/2000/svg">
	<!ENTITY ns_xlink "http://www.w3.org/1999/xlink">
]>
<svg  version="1.1" id="Calque_1" xmlns="&ns_svg;" xmlns:xlink="&ns_xlink;" width="3193.088" height="712.855"
	 viewBox="0 0 3193.088 712.855" overflow="visible" enable-background="new 0 0 3193.088 712.855" xml:space="preserve">
<g>
	<path d="M740.616,7.146h46.848v486.643h-46.848V7.146z"/>
	<path d="M834.302,11.434l50.806-4.288l5.938,57.168l-56.745,65.743l-16.496-17.865L840.24,62.17L834.302,11.434z"/>
	<path d="M1073.147,0h36.291l168.254,493.788h-50.146l-66.642-195.086h-138.563c-13.856,40.732-29.032,84.323-43.548,126.484
		c-7.918,21.438-17.815,47.878-24.414,68.602h-49.486L1073.147,0z M1143.089,246.537c-7.258-22.153-18.475-52.166-25.073-72.889
		v0.715c-11.217-30.728-15.836-43.591-27.053-77.892c-6.598,17.865-14.516,39.303-19.795,57.168v0.715
		c-11.876,32.871-19.794,56.453-31.671,92.183H1143.089z"/>
	<path d="M1447.258,187.939c-14.516-5.002-16.495-5.002-19.794-5.002c-33.651,0-63.343,35.729-71.261,74.318v236.532h-47.507
		V179.364c0-12.148-9.897-31.442-28.373-44.305h75.879v27.87c19.795-20.724,45.528-31.442,74.56-31.442
		c5.938,0,13.856,0,28.372,6.431L1447.258,187.939z"/>
	<path d="M1591.092,7.146v132.916h83.138v52.166h-83.138v301.561h-46.847V192.227h-46.847v-52.166h45.527V7.146H1591.092z"/>
	<path d="M1752.084,17.15c15.176,0,29.032,13.577,29.032,29.298s-13.856,30.013-29.032,30.013
		c-16.496,0-28.372-14.292-28.372-30.013S1735.588,17.15,1752.084,17.15z M1728.99,135.773h46.188v358.015h-46.188V135.773z"/>
	<path d="M2027.88,216.523c-20.455-20.724-48.827-32.872-77.199-32.872c-35.63,0-63.343,18.58-63.343,45.734
		c0,26.44,28.372,52.166,67.302,59.312c60.043,10.004,106.231,58.597,106.231,110.763c0,59.312-50.806,100.044-111.51,100.044
		c-39.589,0-85.776-20.724-112.829-57.168l35.63-30.014c19.135,20.724,48.167,35.73,75.219,35.73
		c36.291,0,66.642-20.009,66.642-48.593c0-25.011-33.651-52.166-67.961-62.17c-57.404-10.005-106.891-60.026-106.891-108.619
		c0-57.883,52.786-96.471,114.149-96.471c41.569,0,84.457,22.867,112.83,54.31L2027.88,216.523z"/>
	<path d="M2207.344,7.146v132.916h83.138v52.166h-83.138v301.561h-46.847V192.227h-46.847v-52.166h45.527V7.146H2207.344z"/>
	<path d="M2551.766,420.899l18.475,45.02c-28.373,17.15-57.404,27.869-86.437,33.586c-5.279,0.715-12.537,0.715-17.155,0.715
		c-73.9,0-136.583-75.748-141.861-171.504v-13.578c0-101.473,61.363-184.367,134.603-184.367
		c75.22,0,131.964,78.606,131.964,180.794v27.869h-217.081c6.598,62.885,44.868,108.619,92.375,109.334
		C2491.062,448.769,2528.012,433.047,2551.766,420.899z M2543.848,289.413c-7.258-61.456-41.568-106.475-84.457-106.475
		c-40.249,0-74.56,47.163-83.797,106.475H2543.848z"/>
	<path d="M2772.799,187.939c-14.516-5.002-16.495-5.002-19.794-5.002c-33.651,0-63.343,35.729-71.261,74.318v236.532h-47.507
		V179.364c0-12.148-9.897-31.442-28.373-44.305h75.879v27.87c19.795-20.724,45.528-31.442,74.56-31.442
		c5.938,0,13.856,0,28.372,6.431L2772.799,187.939z"/>
	<path d="M2853.29,17.15c15.176,0,29.032,13.577,29.032,29.298s-13.856,30.013-29.032,30.013c-16.496,0-28.372-14.292-28.372-30.013
		S2836.794,17.15,2853.29,17.15z M2830.196,135.773h46.188v358.015h-46.188V135.773z"/>
	<path d="M3153.499,420.899l18.475,45.02c-28.373,17.15-57.404,27.869-86.437,33.586c-5.279,0.715-12.537,0.715-17.155,0.715
		c-73.9,0-136.583-75.748-141.861-171.504v-13.578c0-101.473,61.363-184.367,134.603-184.367
		c75.22,0,131.964,78.606,131.964,180.794v27.869h-217.081c6.598,62.885,44.868,108.619,92.375,109.334
		C3092.795,448.769,3129.746,433.047,3153.499,420.899z M3145.581,289.413c-7.258-61.456-41.568-106.475-84.457-106.475
		c-40.249,0-74.56,47.163-83.797,106.475H3145.581z"/>
</g>
<polygon fill-rule="evenodd" clip-rule="evenodd" points="46.006,176.668 46.006,289.288 103.674,289.288 103.52,341.312 0,341.419 
	0.197,84.97 103.515,153.954 103.515,211.385 "/>
<path fill-rule="evenodd" clip-rule="evenodd" d="M450.958,355.262L178.489,176.349l-0.107,164.963H134.72l-0.103-255.274
	c0,0,272.789,178.562,407.363,269.945c-136.045,89.215-407.406,268.488-407.406,268.488l0.09-254.938l43.723-0.107l0.102,164.537
	L450.958,355.262z"/>
<path fill-rule="evenodd" clip-rule="evenodd" d="M201.705,219.138c69.563,44.88,138.021,91.021,207.156,136.396
	c-68.665,45.428-139.055,92.714-207.156,136.399c0-19.384,0-38.763,0-58.149c36.968-27.838,78.067-50.949,115.505-78.25
	c-37.897-26.532-78.112-50.422-115.505-77.531C201.705,258.382,201.705,238.759,201.705,219.138z"/>
<polygon fill-rule="evenodd" clip-rule="evenodd" points="0.319,369.427 103.687,369.512 103.687,421.202 45.907,421.396 
	45.907,531.303 103.687,493.448 103.687,552.316 0.409,623.893 "/>
<g>
	<path d="M760.257,682.448c12.342,10.005,31.789,16.086,54.603,16.086c27.302,0,51.237-9.809,51.237-22.363
		c0-11.967-22.065-22.757-49.367-24.914c-42.635-3.139-76.294-19.422-76.294-38.646c0-21.579,36.277-37.666,81.53-37.666
		c29.545,0,53.481,6.474,72.929,17.656l-22.439,9.416c-12.716-8.436-30.293-13.34-50.489-13.34
		c-28.049,0-53.855,10.397-53.855,23.148c0,12.752,22.066,24.13,51.237,25.307c42.635,2.747,74.798,19.422,74.798,38.45
		c0,20.795-35.903,37.273-80.034,37.273c-31.416,0-59.091-8.828-75.173-21.383L760.257,682.448z"/>
	<path d="M1221.378,589.462V711.09h-27.301V589.462h-80.783v-13.929h188.119v13.929H1221.378z"/>
	<path d="M1549.363,675.386c3.74,11.967,33.66,22.953,69.937,22.953c34.407,0,64.327-10.986,67.692-22.953v-99.853h27.302v100.049
		c-1.496,20.206-44.505,37.273-94.994,37.273c-53.107,0-95.742-16.871-98.36-37.077V575.533h28.423V675.386z"/>
	<path d="M1934.566,575.533h97.238c51.237,0.393,92.002,30.407,92.002,67.484c0,37.272-40.018,67.092-91.254,68.072h-97.986V575.533
		z M1961.868,589.854V696.77c11.594,0,22.439,0,34.033-0.196c12.342,0,24.684-0.196,36.651-0.196
		c35.155-0.589,63.953-24.326,63.953-53.359c0-29.23-28.797-52.771-64.701-53.164H1961.868z"/>
	<path d="M2371.756,711.09h-27.301V575.533h27.301V711.09z"/>
	<path d="M2701.606,712.855c-63.205,0-118.182-30.015-118.182-69.446c0-38.058,52.733-68.661,118.182-68.661
		c67.693,0,117.808,30.407,117.808,68.661c0,20.402-13.089,37.666-35.903,50.417C2762.193,705.989,2733.77,712.855,2701.606,712.855
		z M2701.606,589.266c-50.115,0-90.506,23.933-90.506,54.144c0,30.407,40.017,54.93,90.506,54.93
		c51.985,0,91.254-24.522,91.254-54.93c0-15.89-10.846-30.211-29.171-39.823C2747.981,594.366,2725.542,589.266,2701.606,589.266z"
		/>
	<path d="M3058.385,682.448c12.342,10.005,31.789,16.086,54.603,16.086c27.302,0,51.237-9.809,51.237-22.363
		c0-11.967-22.065-22.757-49.367-24.914c-42.635-3.139-76.294-19.422-76.294-38.646c0-21.579,36.277-37.666,81.53-37.666
		c29.545,0,53.481,6.474,72.929,17.656l-22.439,9.416c-12.716-8.436-30.293-13.34-50.489-13.34
		c-28.049,0-53.855,10.397-53.855,23.148c0,12.752,22.066,24.13,51.237,25.307c42.635,2.747,74.798,19.422,74.798,38.45
		c0,20.795-35.903,37.273-80.034,37.273c-31.416,0-59.091-8.828-75.173-21.383L3058.385,682.448z"/>
</g>
</svg>
