<?xml version="1.0" standalone="no"?>
<!DOCTYPE svg PUBLIC "-//W3C//DTD SVG 20010904//EN"
 "http://www.w3.org/TR/2001/REC-SVG-20010904/DTD/svg10.dtd">
<svg version="1.0" xmlns="http://www.w3.org/2000/svg"
 width="501.000000pt" height="501.000000pt" viewBox="0 0 501.000000 501.000000"
 preserveAspectRatio="xMidYMid meet">
<metadata>
Created by potrace 1.11, written by Peter Selinger 2001-2013
</metadata>
<g transform="translate(0.000000,501.000000) scale(0.100000,-0.100000)"
fill="#000000" stroke="none">
<path d="M2 3818 l3 -1193 480 0 480 0 0 245 0 245 -267 3 -268 2 0 515 0 514
263 -159 262 -159 3 262 c1 144 0 267 -2 273 -4 10 -921 631 -948 642 -4 2 -7
-533 -6 -1190z"/>
<path d="M1242 3813 l3 -1188 205 0 205 0 3 758 c1 417 6 757 11 755 17 -7
2481 -1633 2481 -1638 0 -3 -560 -373 -1243 -823 l-1242 -818 -3 756 -2 755
-210 0 -210 0 0 -1185 c0 -652 2 -1185 4 -1185 3 0 474 311 1048 692 1144 758
2124 1406 2487 1645 128 85 230 158 225 162 -50 46 -3740 2501 -3759 2501 -3
0 -4 -534 -3 -1187z"/>
<path d="M1860 3486 l0 -273 108 -75 c59 -42 294 -200 524 -351 229 -152 419
-280 422 -285 6 -11 -157 -125 -489 -341 -137 -90 -321 -213 -407 -273 l-158
-111 0 -273 c0 -151 2 -274 5 -274 13 0 1879 1232 1909 1261 11 10 -1879 1269
-1905 1269 -5 0 -9 -123 -9 -274z"/>
<path d="M0 1189 c0 -1061 2 -1181 15 -1175 9 3 227 153 485 333 l470 327 0
273 c0 150 -4 273 -8 273 -5 0 -117 -72 -251 -160 -133 -88 -251 -165 -262
-170 -19 -11 -19 -2 -19 489 l0 501 268 2 267 3 3 243 2 242 -485 0 -485 0 0
-1181z"/>
</g>
</svg>
