<?xml version="1.0" encoding="utf-8"?>
<!-- Generator: Adobe Illustrator 12.0.0, SVG Export Plug-In . SVG Version: 6.00 Build 51448)  -->
<!DOCTYPE svg PUBLIC "-//W3C//DTD SVG 1.1//EN" "http://www.w3.org/Graphics/SVG/1.1/DTD/svg11.dtd" [
	<!ENTITY ns_svg "http://www.w3.org/2000/svg">
	<!ENTITY ns_xlink "http://www.w3.org/1999/xlink">
]>
<svg  version="1.1" xmlns="&ns_svg;" xmlns:xlink="&ns_xlink;" width="440.836" height="112.25" viewBox="0 0 440.836 112.25"
	 overflow="visible" enable-background="new 0 0 440.836 112.25" xml:space="preserve">
<g id="Calque_2">
</g>
<g id="Calque_1">
	<rect y="63.25" width="3.5" height="49"/>
	<rect x="6.527" y="71.25" width="3.5" height="41"/>
	<rect x="26.109" y="71.25" width="3.5" height="41"/>
	<rect x="13.055" y="73.75" width="3.5" height="38.5"/>
	<rect x="19.582" y="72.25" width="3.5" height="40"/>
	<rect x="32.637" y="65.75" width="3.5" height="46.5"/>
	<rect x="39.165" y="40" width="3.5" height="72.25"/>
	<rect x="45.692" y="7.5" width="3.5" height="104.75"/>
	<rect x="52.219" width="3.5" height="112.25"/>
	<rect x="58.747" y="3.25" width="3.5" height="109"/>
	<rect x="65.274" y="27.25" width="3.5" height="85"/>
	<rect x="71.801" y="71.5" width="3.5" height="40.75"/>
	<rect x="78.329" y="70" width="3.5" height="42.25"/>
	<rect x="84.856" y="55" width="3.5" height="57.25"/>
	<rect x="91.384" y="38.25" width="3.5" height="74"/>
	<rect x="97.911" y="37" width="3.5" height="75.25"/>
	<rect x="104.438" y="52.75" width="3.5" height="59.5"/>
	<rect x="110.966" y="73.25" width="3.5" height="39"/>
	<rect x="117.493" y="76.75" width="3.5" height="35.5"/>
	<rect x="124.021" y="79.25" width="3.5" height="33"/>
	<rect x="130.548" y="84.5" width="3.5" height="27.75"/>
	<rect x="137.075" y="93.75" width="3.5" height="18.5"/>
	<rect x="143.603" y="96.5" width="3.5" height="15.75"/>
	<rect x="150.13" y="95.75" width="3.5" height="16.5"/>
	<rect x="156.658" y="89.25" width="3.5" height="23"/>
	<rect x="163.185" y="86.5" width="3.5" height="25.75"/>
	<rect x="169.713" y="84.75" width="3.5" height="27.5"/>
	<rect x="176.24" y="79.75" width="3.5" height="32.5"/>
	<rect x="182.768" y="72.5" width="3.5" height="39.75"/>
	<rect x="189.295" y="67" width="3.5" height="45.25"/>
	<rect x="195.822" y="66.25" width="3.5" height="46"/>
	<rect x="202.35" y="65.5" width="3.5" height="46.75"/>
	<rect x="208.877" y="65" width="3.5" height="47.25"/>
	<rect x="215.404" y="67" width="3.5" height="45.25"/>
	<rect x="221.932" y="36.5" width="3.5" height="75.75"/>
	<rect x="228.459" y="19" width="3.5" height="93.25"/>
	<rect x="234.986" y="19" width="3.5" height="93.25"/>
	<rect x="241.514" y="34.75" width="3.5" height="77.5"/>
	<rect x="248.041" y="64.25" width="3.5" height="48"/>
	<rect x="254.568" y="61" width="3.5" height="51.25"/>
	<rect x="261.096" y="58.75" width="3.5" height="53.5"/>
	<rect x="267.623" y="60" width="3.5" height="52.25"/>
	<rect x="274.15" y="26.5" width="3.5" height="85.75"/>
	<rect x="280.679" y="9.25" width="3.5" height="103"/>
	<rect x="287.206" y="9" width="3.5" height="103.25"/>
	<rect x="293.733" y="26.5" width="3.5" height="85.75"/>
	<rect x="300.261" y="62.75" width="3.5" height="49.5"/>
	<rect x="306.788" y="67.25" width="3.5" height="45"/>
	<rect x="313.315" y="66.75" width="3.5" height="45.5"/>
	<rect x="319.843" y="68.5" width="3.5" height="43.75"/>
	<rect x="326.37" y="68.75" width="3.5" height="43.5"/>
	<rect x="332.897" y="69.25" width="3.5" height="43"/>
	<rect x="339.425" y="66.75" width="3.5" height="45.5"/>
	<rect x="345.952" y="68.25" width="3.5" height="44"/>
	<rect x="352.479" y="69.25" width="3.5" height="43"/>
	<rect x="359.007" y="72.25" width="3.5" height="40"/>
	<rect x="365.534" y="75.75" width="3.5" height="36.5"/>
	<rect x="372.062" y="74.25" width="3.5" height="38"/>
	<rect x="378.589" y="72" width="3.5" height="40.25"/>
	<rect x="385.117" y="69.75" width="3.5" height="42.5"/>
	<rect x="391.645" y="67.5" width="3.5" height="44.75"/>
	<rect x="398.172" y="38.25" width="3.5" height="74"/>
	<rect x="404.699" y="17.5" width="3.5" height="94.75"/>
	<rect x="411.227" y="13.75" width="3.5" height="98.5"/>
	<rect x="417.754" y="26" width="3.5" height="86.25"/>
	<rect x="424.281" y="55.5" width="3.5" height="56.75"/>
	<rect x="430.809" y="61.5" width="3.5" height="50.75"/>
	<rect x="437.336" y="61.25" width="3.5" height="51"/>
</g>
</svg>
