<?xml version="1.0" encoding="utf-8"?>
<!-- Generator: Adobe Illustrator 12.0.0, SVG Export Plug-In . SVG Version: 6.00 Build 51448)  -->
<!DOCTYPE svg PUBLIC "-//W3C//DTD SVG 1.1//EN" "http://www.w3.org/Graphics/SVG/1.1/DTD/svg11.dtd" [
	<!ENTITY ns_svg "http://www.w3.org/2000/svg">
	<!ENTITY ns_xlink "http://www.w3.org/1999/xlink">
]>
<svg  version="1.1" xmlns="&ns_svg;" xmlns:xlink="&ns_xlink;" width="440.836" height="112.25" viewBox="0 0 440.836 112.25"
	 overflow="visible" enable-background="new 0 0 440.836 112.25" xml:space="preserve">
<g id="Calque_2">
</g>
<g id="Calque_1">
	<rect fill="#267C4E" width="3.5" height="49"/>
	<rect x="6.527" fill="#267C4E" width="3.5" height="41"/>
	<rect x="26.109" fill="#267C4E" width="3.5" height="41"/>
	<rect x="13.055" fill="#267C4E" width="3.5" height="38.5"/>
	<rect x="19.582" fill="#267C4E" width="3.5" height="40"/>
	<rect x="32.637" fill="#267C4E" width="3.5" height="46.5"/>
	<rect x="39.165" fill="#267C4E" width="3.5" height="72.25"/>
	<rect x="45.692" fill="#267C4E" width="3.5" height="104.75"/>
	<rect x="52.219" fill="#267C4E" width="3.5" height="112.25"/>
	<rect x="58.746" fill="#267C4E" width="3.5" height="109"/>
	<rect x="65.273" fill="#267C4E" width="3.5" height="85"/>
	<rect x="71.801" fill="#267C4E" width="3.5" height="40.75"/>
	<rect x="78.328" fill="#267C4E" width="3.5" height="42.25"/>
	<rect x="84.856" fill="#267C4E" width="3.5" height="57.25"/>
	<rect x="91.384" fill="#267C4E" width="3.5" height="74"/>
	<rect x="97.911" fill="#267C4E" width="3.5" height="75.25"/>
	<rect x="104.438" fill="#267C4E" width="3.5" height="59.5"/>
	<rect x="110.966" fill="#267C4E" width="3.5" height="39"/>
	<rect x="117.493" fill="#267C4E" width="3.5" height="35.5"/>
	<rect x="124.021" fill="#267C4E" width="3.5" height="33"/>
	<rect x="130.548" fill="#267C4E" width="3.5" height="27.75"/>
	<rect x="137.075" fill="#267C4E" width="3.5" height="18.5"/>
	<rect x="143.604" fill="#267C4E" width="3.5" height="15.75"/>
	<rect x="150.131" fill="#267C4E" width="3.5" height="16.5"/>
	<rect x="156.658" fill="#267C4E" width="3.5" height="23"/>
	<rect x="163.186" fill="#267C4E" width="3.5" height="25.75"/>
	<rect x="169.713" fill="#267C4E" width="3.5" height="27.5"/>
	<rect x="176.24" fill="#267C4E" width="3.5" height="32.5"/>
	<rect x="182.768" fill="#267C4E" width="3.5" height="39.75"/>
	<rect x="189.295" fill="#267C4E" width="3.5" height="45.25"/>
	<rect x="195.822" fill="#267C4E" width="3.5" height="46"/>
	<rect x="202.35" fill="#267C4E" width="3.5" height="46.75"/>
	<rect x="208.877" fill="#267C4E" width="3.5" height="47.25"/>
	<rect x="215.404" fill="#267C4E" width="3.5" height="45.25"/>
	<rect x="221.932" fill="#267C4E" width="3.5" height="75.75"/>
	<rect x="228.459" fill="#267C4E" width="3.5" height="93.25"/>
	<rect x="234.986" fill="#267C4E" width="3.5" height="93.25"/>
	<rect x="241.514" fill="#267C4E" width="3.5" height="77.5"/>
	<rect x="248.041" fill="#267C4E" width="3.5" height="48"/>
	<rect x="254.568" fill="#267C4E" width="3.5" height="51.25"/>
	<rect x="261.096" fill="#267C4E" width="3.5" height="53.5"/>
	<rect x="267.623" fill="#267C4E" width="3.5" height="52.25"/>
	<rect x="274.15" fill="#267C4E" width="3.5" height="85.75"/>
	<rect x="280.679" fill="#267C4E" width="3.5" height="103"/>
	<rect x="287.206" fill="#267C4E" width="3.5" height="103.25"/>
	<rect x="293.733" fill="#267C4E" width="3.5" height="85.75"/>
	<rect x="300.261" fill="#267C4E" width="3.5" height="49.5"/>
	<rect x="306.788" fill="#267C4E" width="3.5" height="45"/>
	<rect x="313.315" fill="#267C4E" width="3.5" height="45.5"/>
	<rect x="319.843" fill="#267C4E" width="3.5" height="43.75"/>
	<rect x="326.37" fill="#267C4E" width="3.5" height="43.5"/>
	<rect x="332.897" fill="#267C4E" width="3.5" height="43"/>
	<rect x="339.425" fill="#267C4E" width="3.5" height="45.5"/>
	<rect x="345.952" fill="#267C4E" width="3.5" height="44"/>
	<rect x="352.479" fill="#267C4E" width="3.5" height="43"/>
	<rect x="359.007" fill="#267C4E" width="3.5" height="40"/>
	<rect x="365.534" fill="#267C4E" width="3.5" height="36.5"/>
	<rect x="372.062" fill="#267C4E" width="3.5" height="38"/>
	<rect x="378.589" fill="#267C4E" width="3.5" height="40.25"/>
	<rect x="385.117" fill="#267C4E" width="3.5" height="42.5"/>
	<rect x="391.645" fill="#267C4E" width="3.5" height="44.75"/>
	<rect x="398.172" fill="#267C4E" width="3.5" height="74"/>
	<rect x="404.699" fill="#267C4E" width="3.5" height="94.75"/>
	<rect x="411.227" fill="#267C4E" width="3.5" height="98.5"/>
	<rect x="417.754" fill="#267C4E" width="3.5" height="86.25"/>
	<rect x="424.281" fill="#267C4E" width="3.5" height="56.75"/>
	<rect x="430.809" fill="#267C4E" width="3.5" height="50.75"/>
	<rect x="437.336" fill="#267C4E" width="3.5" height="51"/>
</g>
</svg>
