<?xml version="1.0" encoding="utf-8"?>
<!-- Generator: Adobe Illustrator 12.0.0, SVG Export Plug-In . SVG Version: 6.00 Build 51448)  -->
<!DOCTYPE svg PUBLIC "-//W3C//DTD SVG 1.1//EN" "http://www.w3.org/Graphics/SVG/1.1/DTD/svg11.dtd" [
	<!ENTITY ns_svg "http://www.w3.org/2000/svg">
	<!ENTITY ns_xlink "http://www.w3.org/1999/xlink">
]>
<svg  version="1.1" xmlns="&ns_svg;" xmlns:xlink="&ns_xlink;" width="440.835" height="112.25" viewBox="0 0 440.835 112.25"
	 overflow="visible" enable-background="new 0 0 440.835 112.25" xml:space="preserve">
<g id="Calque_2">
</g>
<g id="Calque_1">
	<rect y="63.25" fill="#267C4E" width="3.5" height="49"/>
	<rect x="6.527" y="71.25" fill="#267C4E" width="3.5" height="41"/>
	<rect x="26.109" y="71.25" fill="#267C4E" width="3.5" height="41"/>
	<rect x="13.055" y="73.75" fill="#267C4E" width="3.5" height="38.5"/>
	<rect x="19.582" y="72.25" fill="#267C4E" width="3.5" height="40"/>
	<rect x="32.637" y="65.75" fill="#267C4E" width="3.5" height="46.5"/>
	<rect x="39.165" y="40" fill="#267C4E" width="3.5" height="72.25"/>
	<rect x="45.692" y="7.5" fill="#267C4E" width="3.5" height="104.75"/>
	<rect x="52.219" fill="#267C4E" width="3.5" height="112.25"/>
	<rect x="58.746" y="3.25" fill="#267C4E" width="3.5" height="109"/>
	<rect x="65.273" y="27.25" fill="#267C4E" width="3.5" height="85"/>
	<rect x="71.801" y="71.5" fill="#267C4E" width="3.5" height="40.75"/>
	<rect x="78.328" y="70" fill="#267C4E" width="3.5" height="42.25"/>
	<rect x="84.856" y="55" fill="#267C4E" width="3.5" height="57.25"/>
	<rect x="91.384" y="38.25" fill="#267C4E" width="3.5" height="74"/>
	<rect x="97.911" y="37" fill="#267C4E" width="3.5" height="75.25"/>
	<rect x="104.438" y="52.75" fill="#267C4E" width="3.5" height="59.5"/>
	<rect x="110.966" y="73.25" fill="#267C4E" width="3.5" height="39"/>
	<rect x="117.493" y="76.75" fill="#267C4E" width="3.5" height="35.5"/>
	<rect x="124.021" y="79.25" fill="#267C4E" width="3.5" height="33"/>
	<rect x="130.548" y="84.5" fill="#267C4E" width="3.5" height="27.75"/>
	<rect x="137.075" y="93.75" fill="#267C4E" width="3.5" height="18.5"/>
	<rect x="143.604" y="96.5" fill="#267C4E" width="3.5" height="15.75"/>
	<rect x="150.131" y="95.75" fill="#267C4E" width="3.5" height="16.5"/>
	<rect x="156.658" y="89.25" fill="#267C4E" width="3.5" height="23"/>
	<rect x="163.186" y="86.5" fill="#267C4E" width="3.5" height="25.75"/>
	<rect x="169.712" y="84.75" fill="#267C4E" width="3.5" height="27.5"/>
	<rect x="176.24" y="79.75" fill="#267C4E" width="3.5" height="32.5"/>
	<rect x="182.767" y="72.5" fill="#267C4E" width="3.5" height="39.75"/>
	<rect x="189.294" y="67" fill="#267C4E" width="3.5" height="45.25"/>
	<rect x="195.822" y="66.25" fill="#267C4E" width="3.5" height="46"/>
	<rect x="202.349" y="65.5" fill="#267C4E" width="3.5" height="46.75"/>
	<rect x="208.876" y="65" fill="#267C4E" width="3.5" height="47.25"/>
	<rect x="215.404" y="67" fill="#267C4E" width="3.5" height="45.25"/>
	<rect x="221.931" y="36.5" fill="#267C4E" width="3.5" height="75.75"/>
	<rect x="228.458" y="19" fill="#267C4E" width="3.5" height="93.25"/>
	<rect x="234.986" y="19" fill="#267C4E" width="3.5" height="93.25"/>
	<rect x="241.513" y="34.75" fill="#267C4E" width="3.5" height="77.5"/>
	<rect x="248.041" y="64.25" fill="#267C4E" width="3.5" height="48"/>
	<rect x="254.568" y="61" fill="#267C4E" width="3.5" height="51.25"/>
	<rect x="261.095" y="58.75" fill="#267C4E" width="3.5" height="53.5"/>
	<rect x="267.623" y="60" fill="#267C4E" width="3.5" height="52.25"/>
	<rect x="274.15" y="26.5" fill="#267C4E" width="3.5" height="85.75"/>
	<rect x="280.679" y="9.25" fill="#267C4E" width="3.5" height="103"/>
	<rect x="287.207" y="9" fill="#267C4E" width="3.5" height="103.25"/>
	<rect x="293.734" y="26.5" fill="#267C4E" width="3.5" height="85.75"/>
	<rect x="300.261" y="62.75" fill="#267C4E" width="3.5" height="49.5"/>
	<rect x="306.789" y="67.25" fill="#267C4E" width="3.5" height="45"/>
	<rect x="313.316" y="66.75" fill="#267C4E" width="3.5" height="45.5"/>
	<rect x="319.843" y="68.5" fill="#267C4E" width="3.5" height="43.75"/>
	<rect x="326.371" y="68.75" fill="#267C4E" width="3.5" height="43.5"/>
	<rect x="332.898" y="69.25" fill="#267C4E" width="3.5" height="43"/>
	<rect x="339.425" y="66.75" fill="#267C4E" width="3.5" height="45.5"/>
	<rect x="345.953" y="68.25" fill="#267C4E" width="3.5" height="44"/>
	<rect x="352.48" y="69.25" fill="#267C4E" width="3.5" height="43"/>
	<rect x="359.007" y="72.25" fill="#267C4E" width="3.5" height="40"/>
	<rect x="365.535" y="75.75" fill="#267C4E" width="3.5" height="36.5"/>
	<rect x="372.062" y="74.25" fill="#267C4E" width="3.5" height="38"/>
	<rect x="378.589" y="72" fill="#267C4E" width="3.5" height="40.25"/>
	<rect x="385.117" y="69.75" fill="#267C4E" width="3.5" height="42.5"/>
	<rect x="391.644" y="67.5" fill="#267C4E" width="3.5" height="44.75"/>
	<rect x="398.171" y="38.25" fill="#267C4E" width="3.5" height="74"/>
	<rect x="404.699" y="17.5" fill="#267C4E" width="3.5" height="94.75"/>
	<rect x="411.226" y="13.75" fill="#267C4E" width="3.5" height="98.5"/>
	<rect x="417.753" y="26" fill="#267C4E" width="3.5" height="86.25"/>
	<rect x="424.281" y="55.5" fill="#267C4E" width="3.5" height="56.75"/>
	<rect x="430.808" y="61.5" fill="#267C4E" width="3.5" height="50.75"/>
	<rect x="437.335" y="61.25" fill="#267C4E" width="3.5" height="51"/>
</g>
</svg>
